<svg width="224" height="70" viewBox="0 0 224 70" fill="none" xmlns="http://www.w3.org/2000/svg">
<g clip-path="url(#clip0_1490_14684)">
<path d="M13.7139 29.7816C13.6387 29.943 12.6057 34.2527 13.1598 37.3284C13.7139 40.4041 15.8269 42.9577 18.6913 44.0588C21.5556 45.16 24.5797 44.4101 24.5797 44.4101C24.5797 44.4101 18.8509 41.3819 19.3487 35.6482C19.9309 28.9747 27.2468 29.4399 27.2468 29.4399C27.2468 29.4399 23.772 26.013 20.2033 26.592C16.6346 27.1711 14.1646 28.7944 13.7139 29.7816Z" fill="url(#paint0_linear_1490_14684)"/>
<path d="M61.6939 29.7816C61.769 29.943 62.8021 34.2527 62.248 37.3284C61.6939 40.4041 59.5808 42.9577 56.7165 44.0588C53.8521 45.16 50.8281 44.4101 50.8281 44.4101C50.8281 44.4101 56.5568 41.3819 56.0591 35.6482C55.4768 28.9747 48.1609 29.4399 48.1609 29.4399C48.1609 29.4399 51.6358 26.013 55.2045 26.592C58.7732 27.1711 61.2431 28.7944 61.6939 29.7816Z" fill="url(#paint1_linear_1490_14684)"/>
<path d="M34.1964 26.9905C34.1025 26.905 33.9898 26.8006 33.8583 26.6867C33.0506 25.9937 31.5386 24.8356 29.7261 23.7724C25.6408 21.3707 21.0485 20.8771 17.1417 23.9528C12.6338 27.5126 13.1128 32.5058 13.047 34.0247C13.0846 33.0469 14.7375 31.2717 15.3385 30.5598C16.0523 29.7149 16.8599 28.946 17.7897 28.3954C19.358 27.4556 21.1236 27.2563 22.861 27.6929C25.4436 28.3479 27.829 29.8763 29.5758 31.3761" fill="url(#paint2_linear_1490_14684)"/>
<path d="M58.482 40.9631C56.754 42.3301 54.6409 42.8047 52.556 42.2636C48.6117 41.2384 45.4843 37.4223 43.2398 34.0049C43.0332 34.2042 41.8781 35.3719 41.6808 35.5712C40.3567 36.8717 40.0186 37.2609 38.685 38.5899C40.5821 41.4378 42.7515 44.428 45.691 46.1652C48.0576 47.5606 50.7811 48.5574 53.5046 48.1207C57.355 47.5037 60.9143 44.4945 61.9756 40.3936C62.3512 38.9412 62.3982 37.4413 62.3982 35.9414C61.4778 38.1343 59.3742 40.2512 58.4726 40.9631H58.482Z" fill="url(#paint3_linear_1490_14684)"/>
<path d="M62.408 34.0239C62.3704 33.0461 60.7176 31.271 60.1165 30.559C59.4028 29.7141 58.5951 28.9452 57.6654 28.3946C56.097 27.4548 54.3314 27.2555 52.594 27.6922C48.3679 28.7649 44.7804 32.524 41.6719 35.5807C37.8966 39.2924 34.2715 43.5072 29.7543 46.1747C27.3876 47.5702 24.6641 48.5669 21.9406 48.1302C18.0902 47.5132 14.5309 44.504 13.4696 40.4031C13.094 38.9317 13.047 37.4318 13.047 35.932C13.9674 38.1248 16.071 40.2417 16.9726 40.9537C18.7006 42.3206 20.8137 42.7953 22.8986 42.2542C27.228 41.134 30.8624 37.2325 34.0461 34.1093C36.084 32.1443 38.0093 30.2173 39.9533 28.3092C41.7189 26.572 43.6253 25.0057 45.729 23.7621C49.8048 21.3604 54.4066 20.8668 58.3134 23.9425C62.8212 27.5023 62.3423 32.4955 62.408 34.0049V34.0239Z" fill="url(#paint4_linear_1490_14684)"/>
</g>
<path d="M77.5577 47V28.3309H80.9393V47H77.5577ZM79.2485 24.738C78.591 24.738 78.0392 24.5266 77.593 24.1039C77.1703 23.6812 76.9589 23.1646 76.9589 22.554C76.9589 21.92 77.1703 21.3916 77.593 20.9689C78.0392 20.5462 78.591 20.3349 79.2485 20.3349C79.9061 20.3349 80.4462 20.5462 80.8689 20.9689C81.3151 21.3681 81.5381 21.873 81.5381 22.4836C81.5381 23.1176 81.3268 23.6577 80.9041 24.1039C80.4814 24.5266 79.9295 24.738 79.2485 24.738ZM97.3645 28.1548C98.8909 28.1548 100.229 28.4483 101.38 29.0354C102.554 29.6225 103.47 30.5148 104.128 31.7125C104.785 32.9101 105.114 34.4248 105.114 36.2565V47H101.732V36.6439C101.732 34.8357 101.286 33.4737 100.394 32.5579C99.525 31.642 98.2921 31.1841 96.6952 31.1841C95.4976 31.1841 94.4526 31.4189 93.5602 31.8886C92.6679 32.3582 91.9751 33.051 91.482 33.9668C91.0123 34.8827 90.7775 36.0216 90.7775 37.3836V47H87.3959V28.3309H90.6366V33.368L90.1082 32.0295C90.7188 30.8084 91.6581 29.8573 92.9262 29.1763C94.1943 28.4953 95.6737 28.1548 97.3645 28.1548ZM111.865 47V26.6753C111.865 24.8436 112.394 23.3877 113.45 22.3075C114.531 21.2037 116.057 20.6519 118.03 20.6519C118.758 20.6519 119.45 20.7458 120.108 20.9337C120.789 21.0981 121.364 21.3681 121.834 21.7439L120.812 24.3153C120.46 24.0335 120.061 23.8221 119.615 23.6812C119.169 23.5168 118.699 23.4346 118.206 23.4346C117.219 23.4346 116.468 23.7164 115.951 24.28C115.435 24.8201 115.176 25.6303 115.176 26.7105V29.2115L115.247 30.7614V47H111.865ZM108.695 31.1136V28.3309H120.601V31.1136H108.695ZM123.806 47V28.3309H127.188V47H123.806ZM125.497 24.738C124.84 24.738 124.288 24.5266 123.842 24.1039C123.419 23.6812 123.208 23.1646 123.208 22.554C123.208 21.92 123.419 21.3916 123.842 20.9689C124.288 20.5462 124.84 20.3349 125.497 20.3349C126.155 20.3349 126.695 20.5462 127.118 20.9689C127.564 21.3681 127.787 21.873 127.787 22.4836C127.787 23.1176 127.576 23.6577 127.153 24.1039C126.73 24.5266 126.178 24.738 125.497 24.738ZM138.525 47L130.352 28.3309H133.875L141.131 45.2388H139.44L146.838 28.3309H150.149L141.977 47H138.525ZM161.102 47.2113C159.106 47.2113 157.344 46.8004 155.818 45.9785C154.315 45.1566 153.141 44.0294 152.296 42.5969C151.474 41.1644 151.063 39.5206 151.063 37.6654C151.063 35.8103 151.462 34.1664 152.26 32.734C153.082 31.3015 154.198 30.1861 155.607 29.3876C157.039 28.5657 158.648 28.1548 160.432 28.1548C162.241 28.1548 163.838 28.554 165.223 29.3524C166.609 30.1508 167.689 31.278 168.464 32.734C169.262 34.1664 169.661 35.8455 169.661 37.7711C169.661 37.912 169.65 38.0764 169.626 38.2643C169.626 38.4521 169.614 38.6283 169.591 38.7926H153.705V36.3621H167.83L166.456 37.2075C166.479 36.0099 166.233 34.9414 165.716 34.0021C165.2 33.0627 164.483 32.3348 163.567 31.8181C162.675 31.278 161.63 31.008 160.432 31.008C159.258 31.008 158.213 31.278 157.297 31.8181C156.382 32.3348 155.665 33.0745 155.149 34.0373C154.632 34.9766 154.374 36.0568 154.374 37.278V37.8416C154.374 39.0862 154.656 40.2016 155.219 41.1879C155.806 42.1507 156.616 42.9022 157.65 43.4423C158.683 43.9824 159.869 44.2525 161.207 44.2525C162.311 44.2525 163.309 44.0646 164.202 43.6889C165.117 43.3131 165.916 42.7495 166.597 41.9981L168.464 44.182C167.618 45.1683 166.562 45.9198 165.294 46.4364C164.049 46.953 162.652 47.2113 161.102 47.2113ZM184.326 28.1548C185.852 28.1548 187.191 28.4483 188.341 29.0354C189.515 29.6225 190.431 30.5148 191.089 31.7125C191.746 32.9101 192.075 34.4248 192.075 36.2565V47H188.693V36.6439C188.693 34.8357 188.247 33.4737 187.355 32.5579C186.486 31.642 185.253 31.1841 183.656 31.1841C182.459 31.1841 181.414 31.4189 180.521 31.8886C179.629 32.3582 178.936 33.051 178.443 33.9668C177.973 34.8827 177.739 36.0216 177.739 37.3836V47H174.357V28.3309H177.598V33.368L177.069 32.0295C177.68 30.8084 178.619 29.8573 179.887 29.1763C181.155 28.4953 182.635 28.1548 184.326 28.1548ZM204.744 47.2113C202.865 47.2113 201.41 46.7065 200.376 45.6967C199.343 44.6869 198.826 43.2427 198.826 41.364V24.2448H202.208V41.2231C202.208 42.2329 202.455 43.0079 202.948 43.548C203.464 44.0881 204.192 44.3581 205.132 44.3581C206.188 44.3581 207.069 44.0646 207.773 43.4775L208.83 45.908C208.314 46.3542 207.691 46.683 206.963 46.8943C206.259 47.1057 205.519 47.2113 204.744 47.2113ZM195.656 31.1136V28.3309H207.562V31.1136H195.656Z" fill="black"/>
<defs>
<linearGradient id="paint0_linear_1490_14684" x1="13.0001" y1="35.5912" x2="27.2468" y2="35.5912" gradientUnits="userSpaceOnUse">
<stop stop-color="#00E5FF"/>
<stop offset="0.12" stop-color="#29B8FE"/>
<stop offset="0.29" stop-color="#5E81FD"/>
<stop offset="0.46" stop-color="#8952FD"/>
<stop offset="0.62" stop-color="#AB2EFC"/>
<stop offset="0.76" stop-color="#C415FC"/>
<stop offset="0.9" stop-color="#D205FC"/>
<stop offset="1" stop-color="#D800FC"/>
</linearGradient>
<linearGradient id="paint1_linear_1490_14684" x1="48.1609" y1="21.8076" x2="62.4076" y2="21.8076" gradientUnits="userSpaceOnUse">
<stop stop-color="#00E5FF"/>
<stop offset="0.12" stop-color="#29B8FE"/>
<stop offset="0.29" stop-color="#5E81FD"/>
<stop offset="0.46" stop-color="#8952FD"/>
<stop offset="0.62" stop-color="#AB2EFC"/>
<stop offset="0.76" stop-color="#C415FC"/>
<stop offset="0.9" stop-color="#D205FC"/>
<stop offset="1" stop-color="#D800FC"/>
</linearGradient>
<linearGradient id="paint2_linear_1490_14684" x1="13.047" y1="27.9113" x2="34.1964" y2="27.9113" gradientUnits="userSpaceOnUse">
<stop stop-color="#00E5FF"/>
<stop offset="0.12" stop-color="#29B8FE"/>
<stop offset="0.29" stop-color="#5E81FD"/>
<stop offset="0.46" stop-color="#8952FD"/>
<stop offset="0.62" stop-color="#AB2EFC"/>
<stop offset="0.76" stop-color="#C415FC"/>
<stop offset="0.9" stop-color="#D205FC"/>
<stop offset="1" stop-color="#D800FC"/>
</linearGradient>
<linearGradient id="paint3_linear_1490_14684" x1="38.685" y1="41.115" x2="62.4076" y2="41.115" gradientUnits="userSpaceOnUse">
<stop stop-color="#00E5FF"/>
<stop offset="0.12" stop-color="#29B8FE"/>
<stop offset="0.29" stop-color="#5E81FD"/>
<stop offset="0.46" stop-color="#8952FD"/>
<stop offset="0.62" stop-color="#AB2EFC"/>
<stop offset="0.76" stop-color="#C415FC"/>
<stop offset="0.9" stop-color="#D205FC"/>
<stop offset="1" stop-color="#D800FC"/>
</linearGradient>
<linearGradient id="paint4_linear_1490_14684" x1="12.9334" y1="36.137" x2="62.3606" y2="33.9678" gradientUnits="userSpaceOnUse">
<stop stop-color="#00E5FF"/>
<stop offset="0.12" stop-color="#29B8FE"/>
<stop offset="0.29" stop-color="#5E81FD"/>
<stop offset="0.46" stop-color="#8952FD"/>
<stop offset="0.62" stop-color="#AB2EFC"/>
<stop offset="0.76" stop-color="#C415FC"/>
<stop offset="0.9" stop-color="#D205FC"/>
<stop offset="1" stop-color="#D800FC"/>
</linearGradient>
<clipPath id="clip0_1490_14684">
<rect width="49.408" height="26.4186" fill="white" transform="translate(13 21.8057)"/>
</clipPath>
</defs>
</svg>
